<svg xmlns="http://www.w3.org/2000/svg" viewBox="0.0 -0.057344407885632706 1.0 0.19359369716866298">
  <g transform="translate(1.000000,0) scale(-1,1) rotate(180 0.500000 0.039452)">
    <polyline points="0.000000,0.000000 0.002506,0.013520 0.005013,0.019198 0.007519,0.023582 0.010025,0.027292 0.012531,0.030571 0.015038,0.033542 0.017544,0.036277 0.020050,0.038826 0.022556,0.041220 0.025063,0.043485 0.027569,0.045639 0.030075,0.047695 0.032581,0.049666 0.035088,0.051560 0.037594,0.053384 0.040100,0.055146 0.042607,0.056851 0.045113,0.058503 0.047619,0.060105 0.050125,0.061662 0.052632,0.063177 0.055138,0.064652 0.057644,0.066090 0.060150,0.067492 0.062657,0.068861 0.065163,0.070198 0.067669,0.071505 0.070175,0.072783 0.072682,0.074033 0.075188,0.075258 0.077694,0.076457 0.080201,0.077632 0.082707,0.078784 0.085213,0.079913 0.087719,0.081021 0.090226,0.082108 0.092732,0.083175 0.095238,0.084222 0.097744,0.085250 0.100251,0.086260 0.102757,0.087252 0.105263,0.088227 0.107769,0.089185 0.110276,0.090126 0.112782,0.091051 0.115288,0.091961 0.117794,0.092856 0.120301,0.093736 0.122807,0.094601 0.125313,0.095452 0.127820,0.096289 0.130326,0.097113 0.132832,0.097923 0.135338,0.098720 0.137845,0.099505 0.140351,0.100277 0.142857,0.101037 0.145363,0.101784 0.147870,0.102520 0.150376,0.103244 0.152882,0.103957 0.155388,0.104659 0.157895,0.105350 0.160401,0.106029 0.162907,0.106698 0.165414,0.107357 0.167920,0.108005 0.170426,0.108643 0.172932,0.109271 0.175439,0.109889 0.177945,0.110497 0.180451,0.111096 0.182957,0.111685 0.185464,0.112265 0.187970,0.112836 0.190476,0.113398 0.192982,0.113950 0.195489,0.114494 0.197995,0.115029 0.200501,0.115555 0.203008,0.116073 0.205514,0.116583 0.208020,0.117084 0.210526,0.117577 0.213033,0.118062 0.215539,0.118538 0.218045,0.119007 0.220551,0.119468 0.223058,0.119921 0.225564,0.120366 0.228070,0.120804 0.230576,0.121235 0.233083,0.121657 0.235589,0.122073 0.238095,0.122481 0.240602,0.122882 0.243108,0.123276 0.245614,0.123663 0.248120,0.124042 0.250627,0.124415 0.253133,0.124781 0.255639,0.125140 0.258145,0.125493 0.260652,0.125838 0.263158,0.126177 0.265664,0.126510 0.268170,0.126836 0.270677,0.127156 0.273183,0.127469 0.275689,0.127776 0.278195,0.128076 0.280702,0.128371 0.283208,0.128659 0.285714,0.128941 0.288221,0.129217 0.290727,0.129487 0.293233,0.129751 0.295739,0.130009 0.298246,0.130261 0.300752,0.130507 0.303258,0.130748 0.305764,0.130983 0.308271,0.131212 0.310777,0.131436 0.313283,0.131653 0.315789,0.131866 0.318296,0.132073 0.320802,0.132274 0.323308,0.132470 0.325815,0.132660 0.328321,0.132846 0.330827,0.133026 0.333333,0.133200 0.335840,0.133369 0.338346,0.133534 0.340852,0.133692 0.343358,0.133846 0.345865,0.133995 0.348371,0.134139 0.350877,0.134277 0.353383,0.134411 0.355890,0.134539 0.358396,0.134663 0.360902,0.134782 0.363409,0.134896 0.365915,0.135005 0.368421,0.135109 0.370927,0.135209 0.373434,0.135304 0.375940,0.135394 0.378446,0.135479 0.380952,0.135560 0.383459,0.135636 0.385965,0.135708 0.388471,0.135775 0.390977,0.135837 0.393484,0.135895 0.395990,0.135949 0.398496,0.135997 0.401003,0.136042 0.403509,0.136082 0.406015,0.136118 0.408521,0.136149 0.411028,0.136176 0.413534,0.136199 0.416040,0.136218 0.418546,0.136232 0.421053,0.136242 0.423559,0.136248 0.426065,0.136249 0.428571,0.136247 0.431078,0.136240 0.433584,0.136229 0.436090,0.136214 0.438596,0.136195 0.441103,0.136172 0.443609,0.136145 0.446115,0.136114 0.448622,0.136079 0.451128,0.136040 0.453634,0.135997 0.456140,0.135950 0.458647,0.135899 0.461153,0.135844 0.463659,0.135786 0.466165,0.135723 0.468672,0.135657 0.471178,0.135587 0.473684,0.135513 0.476190,0.135435 0.478697,0.135354 0.481203,0.135269 0.483709,0.135180 0.486216,0.135087 0.488722,0.134991 0.491228,0.134891 0.493734,0.134787 0.496241,0.134680 0.498747,0.134569 0.501253,0.134455 0.503759,0.134337 0.506266,0.134215 0.508772,0.134090 0.511278,0.133961 0.513784,0.133829 0.516291,0.133693 0.518797,0.133553 0.521303,0.133411 0.523810,0.133264 0.526316,0.133115 0.528822,0.132961 0.531328,0.132805 0.533835,0.132645 0.536341,0.132481 0.538847,0.132314 0.541353,0.132144 0.543860,0.131971 0.546366,0.131794 0.548872,0.131614 0.551378,0.131430 0.553885,0.131243 0.556391,0.131053 0.558897,0.130859 0.561404,0.130663 0.563910,0.130462 0.566416,0.130259 0.568922,0.130053 0.571429,0.129843 0.573935,0.129630 0.576441,0.129414 0.578947,0.129194 0.581454,0.128972 0.583960,0.128746 0.586466,0.128517 0.588972,0.128285 0.591479,0.128049 0.593985,0.127811 0.596491,0.127569 0.598997,0.127325 0.601504,0.127077 0.604010,0.126826 0.606516,0.126572 0.609023,0.126315 0.611529,0.126055 0.614035,0.125792 0.616541,0.125525 0.619048,0.125256 0.621554,0.124984 0.624060,0.124708 0.626566,0.124430 0.629073,0.124148 0.631579,0.123864 0.634085,0.123576 0.636591,0.123286 0.639098,0.122993 0.641604,0.122696 0.644110,0.122397 0.646617,0.122094 0.649123,0.121789 0.651629,0.121481 0.654135,0.121169 0.656642,0.120855 0.659148,0.120538 0.661654,0.120218 0.664160,0.119895 0.666667,0.119569 0.669173,0.119240 0.671679,0.118908 0.674185,0.118574 0.676692,0.118236 0.679198,0.117896 0.681704,0.117552 0.684211,0.117206 0.686717,0.116857 0.689223,0.116505 0.691729,0.116150 0.694236,0.115792 0.696742,0.115432 0.699248,0.115068 0.701754,0.114700 0.704261,0.114323 0.706767,0.113936 0.709273,0.113539 0.711779,0.113133 0.714286,0.112717 0.716792,0.112291 0.719298,0.111855 0.721805,0.111410 0.724311,0.110956 0.726817,0.110491 0.729323,0.110017 0.731830,0.109533 0.734336,0.109040 0.736842,0.108537 0.739348,0.108024 0.741855,0.107502 0.744361,0.106970 0.746867,0.106428 0.749373,0.105877 0.751880,0.105316 0.754386,0.104746 0.756892,0.104166 0.759398,0.103576 0.761905,0.102977 0.764411,0.102368 0.766917,0.101749 0.769424,0.101121 0.771930,0.100483 0.774436,0.099835 0.776942,0.099178 0.779449,0.098511 0.781955,0.097835 0.784461,0.097149 0.786967,0.096453 0.789474,0.095748 0.791980,0.095033 0.794486,0.094308 0.796992,0.093574 0.799499,0.092830 0.802005,0.092077 0.804511,0.091313 0.807018,0.090541 0.809524,0.089758 0.812030,0.088966 0.814536,0.088165 0.817043,0.087354 0.819549,0.086533 0.822055,0.085702 0.824561,0.084862 0.827068,0.084012 0.829574,0.083153 0.832080,0.082284 0.834586,0.081405 0.837093,0.080517 0.839599,0.079618 0.842105,0.078711 0.844612,0.077793 0.847118,0.076866 0.849624,0.075930 0.852130,0.074983 0.854637,0.074027 0.857143,0.073062 0.859649,0.072086 0.862155,0.071101 0.864662,0.070107 0.867168,0.069102 0.869674,0.068088 0.872180,0.067065 0.874687,0.066031 0.877193,0.064988 0.879699,0.063935 0.882206,0.062873 0.884712,0.061800 0.887218,0.060718 0.889724,0.059627 0.892231,0.058525 0.894737,0.057414 0.897243,0.056293 0.899749,0.055163 0.902256,0.054022 0.904762,0.052872 0.907268,0.051712 0.909774,0.050543 0.912281,0.049364 0.914787,0.048174 0.917293,0.046976 0.919799,0.045767 0.922306,0.044548 0.924812,0.043320 0.927318,0.042082 0.929825,0.040834 0.932331,0.039577 0.934837,0.038309 0.937343,0.037032 0.939850,0.035745 0.942356,0.034448 0.944862,0.033141 0.947368,0.031825 0.949875,0.030498 0.952381,0.029162 0.954887,0.027816 0.957393,0.026460 0.959900,0.025094 0.962406,0.023718 0.964912,0.022332 0.967419,0.020937 0.969925,0.019531 0.972431,0.018116 0.974937,0.016691 0.977444,0.015255 0.979950,0.013810 0.982456,0.012355 0.984962,0.010890 0.987469,0.009415 0.989975,0.007930 0.992481,0.006435 0.994987,0.004930 0.997494,0.003415 1.000000,0.001890 1.000000,-0.001890 0.997494,-0.001418 0.994987,-0.000953 0.992481,-0.000495 0.989975,-0.000044 0.987469,0.000401 0.984962,0.000839 0.982456,0.001270 0.979950,0.001694 0.977444,0.002111 0.974937,0.002522 0.972431,0.002926 0.969925,0.003323 0.967419,0.003713 0.964912,0.004096 0.962406,0.004473 0.959900,0.004842 0.957393,0.005205 0.954887,0.005561 0.952381,0.005910 0.949875,0.006252 0.947368,0.006587 0.944862,0.006915 0.942356,0.007237 0.939850,0.007551 0.937343,0.007859 0.934837,0.008159 0.932331,0.008453 0.929825,0.008740 0.927318,0.009020 0.924812,0.009293 0.922306,0.009558 0.919799,0.009817 0.917293,0.010069 0.914787,0.010314 0.912281,0.010552 0.909774,0.010783 0.907268,0.011007 0.904762,0.011224 0.902256,0.011435 0.899749,0.011638 0.897243,0.011834 0.894737,0.012023 0.892231,0.012205 0.889724,0.012380 0.887218,0.012548 0.884712,0.012708 0.882206,0.012862 0.879699,0.013009 0.877193,0.013149 0.874687,0.013282 0.872180,0.013407 0.869674,0.013526 0.867168,0.013637 0.864662,0.013742 0.862155,0.013839 0.859649,0.013930 0.857143,0.014013 0.854637,0.014089 0.852130,0.014158 0.849624,0.014220 0.847118,0.014275 0.844612,0.014323 0.842105,0.014364 0.839599,0.014398 0.837093,0.014424 0.834586,0.014444 0.832080,0.014456 0.829574,0.014461 0.827068,0.014460 0.824561,0.014451 0.822055,0.014435 0.819549,0.014411 0.817043,0.014381 0.814536,0.014344 0.812030,0.014299 0.809524,0.014248 0.807018,0.014189 0.804511,0.014123 0.802005,0.014050 0.799499,0.013970 0.796992,0.013883 0.794486,0.013788 0.791980,0.013687 0.789474,0.013578 0.786967,0.013463 0.784461,0.013340 0.781955,0.013210 0.779449,0.013073 0.776942,0.012929 0.774436,0.012777 0.771930,0.012619 0.769424,0.012453 0.766917,0.012281 0.764411,0.012101 0.761905,0.011914 0.759398,0.011720 0.756892,0.011519 0.754386,0.011310 0.751880,0.011095 0.749373,0.010872 0.746867,0.010643 0.744361,0.010406 0.741855,0.010162 0.739348,0.009911 0.736842,0.009653 0.734336,0.009388 0.731830,0.009116 0.729323,0.008836 0.726817,0.008550 0.724311,0.008256 0.721805,0.007956 0.719298,0.007648 0.716792,0.007333 0.714286,0.007011 0.711779,0.006682 0.709273,0.006346 0.706767,0.006003 0.704261,0.005653 0.701754,0.005296 0.699248,0.004932 0.696742,0.004566 0.694236,0.004200 0.691729,0.003833 0.689223,0.003467 0.686717,0.003100 0.684211,0.002733 0.681704,0.002366 0.679198,0.001998 0.676692,0.001631 0.674185,0.001263 0.671679,0.000895 0.669173,0.000527 0.666667,0.000159 0.664160,-0.000209 0.661654,-0.000578 0.659148,-0.000947 0.656642,-0.001315 0.654135,-0.001684 0.651629,-0.002054 0.649123,-0.002423 0.646617,-0.002792 0.644110,-0.003162 0.641604,-0.003531 0.639098,-0.003901 0.636591,-0.004271 0.634085,-0.004641 0.631579,-0.005010 0.629073,-0.005380 0.626566,-0.005750 0.624060,-0.006121 0.621554,-0.006491 0.619048,-0.006861 0.616541,-0.007231 0.614035,-0.007601 0.611529,-0.007972 0.609023,-0.008342 0.606516,-0.008712 0.604010,-0.009083 0.601504,-0.009453 0.598997,-0.009823 0.596491,-0.010193 0.593985,-0.010563 0.591479,-0.010934 0.588972,-0.011304 0.586466,-0.011674 0.583960,-0.012043 0.581454,-0.012413 0.578947,-0.012783 0.576441,-0.013152 0.573935,-0.013522 0.571429,-0.013891 0.568922,-0.014260 0.566416,-0.014629 0.563910,-0.014998 0.561404,-0.015367 0.558897,-0.015735 0.556391,-0.016103 0.553885,-0.016472 0.551378,-0.016839 0.548872,-0.017207 0.546366,-0.017574 0.543860,-0.017941 0.541353,-0.018308 0.538847,-0.018675 0.536341,-0.019041 0.533835,-0.019407 0.531328,-0.019772 0.528822,-0.020137 0.526316,-0.020502 0.523810,-0.020867 0.521303,-0.021231 0.518797,-0.021595 0.516291,-0.021958 0.513784,-0.022321 0.511278,-0.022683 0.508772,-0.023045 0.506266,-0.023407 0.503759,-0.023768 0.501253,-0.024128 0.498747,-0.024488 0.496241,-0.024848 0.493734,-0.025207 0.491228,-0.025565 0.488722,-0.025923 0.486216,-0.026280 0.483709,-0.026637 0.481203,-0.026993 0.478697,-0.027348 0.476190,-0.027703 0.473684,-0.028056 0.471178,-0.028410 0.468672,-0.028762 0.466165,-0.029114 0.463659,-0.029465 0.461153,-0.029815 0.458647,-0.030165 0.456140,-0.030513 0.453634,-0.030861 0.451128,-0.031208 0.448622,-0.031554 0.446115,-0.031900 0.443609,-0.032244 0.441103,-0.032587 0.438596,-0.032930 0.436090,-0.033271 0.433584,-0.033611 0.431078,-0.033951 0.428571,-0.034289 0.426065,-0.034627 0.423559,-0.034963 0.421053,-0.035298 0.418546,-0.035632 0.416040,-0.035965 0.413534,-0.036296 0.411028,-0.036627 0.408521,-0.036956 0.406015,-0.037284 0.403509,-0.037610 0.401003,-0.037936 0.398496,-0.038260 0.395990,-0.038582 0.393484,-0.038904 0.390977,-0.039224 0.388471,-0.039542 0.385965,-0.039859 0.383459,-0.040175 0.380952,-0.040489 0.378446,-0.040801 0.375940,-0.041112 0.373434,-0.041421 0.370927,-0.041729 0.368421,-0.042035 0.365915,-0.042339 0.363409,-0.042641 0.360902,-0.042942 0.358396,-0.043241 0.355890,-0.043538 0.353383,-0.043834 0.350877,-0.044127 0.348371,-0.044419 0.345865,-0.044708 0.343358,-0.044996 0.340852,-0.045281 0.338346,-0.045565 0.335840,-0.045846 0.333333,-0.046125 0.330827,-0.046402 0.328321,-0.046677 0.325815,-0.046950 0.323308,-0.047220 0.320802,-0.047488 0.318296,-0.047754 0.315789,-0.048017 0.313283,-0.048278 0.310777,-0.048536 0.308271,-0.048792 0.305764,-0.049045 0.303258,-0.049296 0.300752,-0.049544 0.298246,-0.049789 0.295739,-0.050032 0.293233,-0.050271 0.290727,-0.050508 0.288221,-0.050742 0.285714,-0.050973 0.283208,-0.051201 0.280702,-0.051426 0.278195,-0.051648 0.275689,-0.051867 0.273183,-0.052082 0.270677,-0.052295 0.268170,-0.052504 0.265664,-0.052709 0.263158,-0.052912 0.260652,-0.053110 0.258145,-0.053305 0.255639,-0.053497 0.253133,-0.053685 0.250627,-0.053869 0.248120,-0.054049 0.245614,-0.054226 0.243108,-0.054399 0.240602,-0.054567 0.238095,-0.054732 0.235589,-0.054892 0.233083,-0.055048 0.230576,-0.055200 0.228070,-0.055347 0.225564,-0.055490 0.223058,-0.055629 0.220551,-0.055763 0.218045,-0.055892 0.215539,-0.056016 0.213033,-0.056136 0.210526,-0.056251 0.208020,-0.056360 0.205514,-0.056464 0.203008,-0.056564 0.200501,-0.056657 0.197995,-0.056746 0.195489,-0.056828 0.192982,-0.056905 0.190476,-0.056977 0.187970,-0.057042 0.185464,-0.057101 0.182957,-0.057155 0.180451,-0.057202 0.177945,-0.057242 0.175439,-0.057276 0.172932,-0.057304 0.170426,-0.057324 0.167920,-0.057338 0.165414,-0.057344 0.162907,-0.057344 0.160401,-0.057335 0.157895,-0.057320 0.155388,-0.057296 0.152882,-0.057265 0.150376,-0.057225 0.147870,-0.057177 0.145363,-0.057120 0.142857,-0.057055 0.140351,-0.056981 0.137845,-0.056897 0.135338,-0.056804 0.132832,-0.056702 0.130326,-0.056589 0.127820,-0.056466 0.125313,-0.056333 0.122807,-0.056189 0.120301,-0.056034 0.117794,-0.055867 0.115288,-0.055689 0.112782,-0.055498 0.110276,-0.055295 0.107769,-0.055079 0.105263,-0.054850 0.102757,-0.054607 0.100251,-0.054350 0.097744,-0.054078 0.095238,-0.053790 0.092732,-0.053487 0.090226,-0.053167 0.087719,-0.052830 0.085213,-0.052476 0.082707,-0.052103 0.080201,-0.051710 0.077694,-0.051297 0.075188,-0.050864 0.072682,-0.050408 0.070175,-0.049929 0.067669,-0.049425 0.065163,-0.048896 0.062657,-0.048340 0.060150,-0.047755 0.057644,-0.047140 0.055138,-0.046492 0.052632,-0.045810 0.050125,-0.045092 0.047619,-0.044334 0.045113,-0.043534 0.042607,-0.042688 0.040100,-0.041792 0.037594,-0.040841 0.035088,-0.039831 0.032581,-0.038755 0.030075,-0.037605 0.027569,-0.036373 0.025063,-0.035046 0.022556,-0.033611 0.020050,-0.032050 0.017544,-0.030338 0.015038,-0.028441 0.012531,-0.026313 0.010025,-0.023880 0.007519,-0.021018 0.005013,-0.017486 0.002506,-0.012662 0.000000,0.000000" fill="none" stroke="black" stroke-width="0.001"/>
  </g>
</svg>
