0
SECTION
2
HEADER
0
ENDSEC
0
SECTION
2
TABLES
0
ENDSEC
0
SECTION
2
ENTITIES
0
LWPOLYLINE
70
1
90
800
10
0.000000
20
0.000000
10
0.002506
20
0.013520
10
0.005013
20
0.019198
10
0.007519
20
0.023582
10
0.010025
20
0.027292
10
0.012531
20
0.030571
10
0.015038
20
0.033542
10
0.017544
20
0.036277
10
0.020050
20
0.038826
10
0.022556
20
0.041220
10
0.025063
20
0.043485
10
0.027569
20
0.045639
10
0.030075
20
0.047695
10
0.032581
20
0.049666
10
0.035088
20
0.051560
10
0.037594
20
0.053384
10
0.040100
20
0.055146
10
0.042607
20
0.056851
10
0.045113
20
0.058503
10
0.047619
20
0.060105
10
0.050125
20
0.061662
10
0.052632
20
0.063177
10
0.055138
20
0.064652
10
0.057644
20
0.066090
10
0.060150
20
0.067492
10
0.062657
20
0.068861
10
0.065163
20
0.070198
10
0.067669
20
0.071505
10
0.070175
20
0.072783
10
0.072682
20
0.074033
10
0.075188
20
0.075258
10
0.077694
20
0.076457
10
0.080201
20
0.077632
10
0.082707
20
0.078784
10
0.085213
20
0.079913
10
0.087719
20
0.081021
10
0.090226
20
0.082108
10
0.092732
20
0.083175
10
0.095238
20
0.084222
10
0.097744
20
0.085250
10
0.100251
20
0.086260
10
0.102757
20
0.087252
10
0.105263
20
0.088227
10
0.107769
20
0.089185
10
0.110276
20
0.090126
10
0.112782
20
0.091051
10
0.115288
20
0.091961
10
0.117794
20
0.092856
10
0.120301
20
0.093736
10
0.122807
20
0.094601
10
0.125313
20
0.095452
10
0.127820
20
0.096289
10
0.130326
20
0.097113
10
0.132832
20
0.097923
10
0.135338
20
0.098720
10
0.137845
20
0.099505
10
0.140351
20
0.100277
10
0.142857
20
0.101037
10
0.145363
20
0.101784
10
0.147870
20
0.102520
10
0.150376
20
0.103244
10
0.152882
20
0.103957
10
0.155388
20
0.104659
10
0.157895
20
0.105350
10
0.160401
20
0.106029
10
0.162907
20
0.106698
10
0.165414
20
0.107357
10
0.167920
20
0.108005
10
0.170426
20
0.108643
10
0.172932
20
0.109271
10
0.175439
20
0.109889
10
0.177945
20
0.110497
10
0.180451
20
0.111096
10
0.182957
20
0.111685
10
0.185464
20
0.112265
10
0.187970
20
0.112836
10
0.190476
20
0.113398
10
0.192982
20
0.113950
10
0.195489
20
0.114494
10
0.197995
20
0.115029
10
0.200501
20
0.115555
10
0.203008
20
0.116073
10
0.205514
20
0.116583
10
0.208020
20
0.117084
10
0.210526
20
0.117577
10
0.213033
20
0.118062
10
0.215539
20
0.118538
10
0.218045
20
0.119007
10
0.220551
20
0.119468
10
0.223058
20
0.119921
10
0.225564
20
0.120366
10
0.228070
20
0.120804
10
0.230576
20
0.121235
10
0.233083
20
0.121657
10
0.235589
20
0.122073
10
0.238095
20
0.122481
10
0.240602
20
0.122882
10
0.243108
20
0.123276
10
0.245614
20
0.123663
10
0.248120
20
0.124042
10
0.250627
20
0.124415
10
0.253133
20
0.124781
10
0.255639
20
0.125140
10
0.258145
20
0.125493
10
0.260652
20
0.125838
10
0.263158
20
0.126177
10
0.265664
20
0.126510
10
0.268170
20
0.126836
10
0.270677
20
0.127156
10
0.273183
20
0.127469
10
0.275689
20
0.127776
10
0.278195
20
0.128076
10
0.280702
20
0.128371
10
0.283208
20
0.128659
10
0.285714
20
0.128941
10
0.288221
20
0.129217
10
0.290727
20
0.129487
10
0.293233
20
0.129751
10
0.295739
20
0.130009
10
0.298246
20
0.130261
10
0.300752
20
0.130507
10
0.303258
20
0.130748
10
0.305764
20
0.130983
10
0.308271
20
0.131212
10
0.310777
20
0.131436
10
0.313283
20
0.131653
10
0.315789
20
0.131866
10
0.318296
20
0.132073
10
0.320802
20
0.132274
10
0.323308
20
0.132470
10
0.325815
20
0.132660
10
0.328321
20
0.132846
10
0.330827
20
0.133026
10
0.333333
20
0.133200
10
0.335840
20
0.133369
10
0.338346
20
0.133534
10
0.340852
20
0.133692
10
0.343358
20
0.133846
10
0.345865
20
0.133995
10
0.348371
20
0.134139
10
0.350877
20
0.134277
10
0.353383
20
0.134411
10
0.355890
20
0.134539
10
0.358396
20
0.134663
10
0.360902
20
0.134782
10
0.363409
20
0.134896
10
0.365915
20
0.135005
10
0.368421
20
0.135109
10
0.370927
20
0.135209
10
0.373434
20
0.135304
10
0.375940
20
0.135394
10
0.378446
20
0.135479
10
0.380952
20
0.135560
10
0.383459
20
0.135636
10
0.385965
20
0.135708
10
0.388471
20
0.135775
10
0.390977
20
0.135837
10
0.393484
20
0.135895
10
0.395990
20
0.135949
10
0.398496
20
0.135997
10
0.401003
20
0.136042
10
0.403509
20
0.136082
10
0.406015
20
0.136118
10
0.408521
20
0.136149
10
0.411028
20
0.136176
10
0.413534
20
0.136199
10
0.416040
20
0.136218
10
0.418546
20
0.136232
10
0.421053
20
0.136242
10
0.423559
20
0.136248
10
0.426065
20
0.136249
10
0.428571
20
0.136247
10
0.431078
20
0.136240
10
0.433584
20
0.136229
10
0.436090
20
0.136214
10
0.438596
20
0.136195
10
0.441103
20
0.136172
10
0.443609
20
0.136145
10
0.446115
20
0.136114
10
0.448622
20
0.136079
10
0.451128
20
0.136040
10
0.453634
20
0.135997
10
0.456140
20
0.135950
10
0.458647
20
0.135899
10
0.461153
20
0.135844
10
0.463659
20
0.135786
10
0.466165
20
0.135723
10
0.468672
20
0.135657
10
0.471178
20
0.135587
10
0.473684
20
0.135513
10
0.476190
20
0.135435
10
0.478697
20
0.135354
10
0.481203
20
0.135269
10
0.483709
20
0.135180
10
0.486216
20
0.135087
10
0.488722
20
0.134991
10
0.491228
20
0.134891
10
0.493734
20
0.134787
10
0.496241
20
0.134680
10
0.498747
20
0.134569
10
0.501253
20
0.134455
10
0.503759
20
0.134337
10
0.506266
20
0.134215
10
0.508772
20
0.134090
10
0.511278
20
0.133961
10
0.513784
20
0.133829
10
0.516291
20
0.133693
10
0.518797
20
0.133553
10
0.521303
20
0.133411
10
0.523810
20
0.133264
10
0.526316
20
0.133115
10
0.528822
20
0.132961
10
0.531328
20
0.132805
10
0.533835
20
0.132645
10
0.536341
20
0.132481
10
0.538847
20
0.132314
10
0.541353
20
0.132144
10
0.543860
20
0.131971
10
0.546366
20
0.131794
10
0.548872
20
0.131614
10
0.551378
20
0.131430
10
0.553885
20
0.131243
10
0.556391
20
0.131053
10
0.558897
20
0.130859
10
0.561404
20
0.130663
10
0.563910
20
0.130462
10
0.566416
20
0.130259
10
0.568922
20
0.130053
10
0.571429
20
0.129843
10
0.573935
20
0.129630
10
0.576441
20
0.129414
10
0.578947
20
0.129194
10
0.581454
20
0.128972
10
0.583960
20
0.128746
10
0.586466
20
0.128517
10
0.588972
20
0.128285
10
0.591479
20
0.128049
10
0.593985
20
0.127811
10
0.596491
20
0.127569
10
0.598997
20
0.127325
10
0.601504
20
0.127077
10
0.604010
20
0.126826
10
0.606516
20
0.126572
10
0.609023
20
0.126315
10
0.611529
20
0.126055
10
0.614035
20
0.125792
10
0.616541
20
0.125525
10
0.619048
20
0.125256
10
0.621554
20
0.124984
10
0.624060
20
0.124708
10
0.626566
20
0.124430
10
0.629073
20
0.124148
10
0.631579
20
0.123864
10
0.634085
20
0.123576
10
0.636591
20
0.123286
10
0.639098
20
0.122993
10
0.641604
20
0.122696
10
0.644110
20
0.122397
10
0.646617
20
0.122094
10
0.649123
20
0.121789
10
0.651629
20
0.121481
10
0.654135
20
0.121169
10
0.656642
20
0.120855
10
0.659148
20
0.120538
10
0.661654
20
0.120218
10
0.664160
20
0.119895
10
0.666667
20
0.119569
10
0.669173
20
0.119240
10
0.671679
20
0.118908
10
0.674185
20
0.118574
10
0.676692
20
0.118236
10
0.679198
20
0.117896
10
0.681704
20
0.117552
10
0.684211
20
0.117206
10
0.686717
20
0.116857
10
0.689223
20
0.116505
10
0.691729
20
0.116150
10
0.694236
20
0.115792
10
0.696742
20
0.115432
10
0.699248
20
0.115068
10
0.701754
20
0.114700
10
0.704261
20
0.114323
10
0.706767
20
0.113936
10
0.709273
20
0.113539
10
0.711779
20
0.113133
10
0.714286
20
0.112717
10
0.716792
20
0.112291
10
0.719298
20
0.111855
10
0.721805
20
0.111410
10
0.724311
20
0.110956
10
0.726817
20
0.110491
10
0.729323
20
0.110017
10
0.731830
20
0.109533
10
0.734336
20
0.109040
10
0.736842
20
0.108537
10
0.739348
20
0.108024
10
0.741855
20
0.107502
10
0.744361
20
0.106970
10
0.746867
20
0.106428
10
0.749373
20
0.105877
10
0.751880
20
0.105316
10
0.754386
20
0.104746
10
0.756892
20
0.104166
10
0.759398
20
0.103576
10
0.761905
20
0.102977
10
0.764411
20
0.102368
10
0.766917
20
0.101749
10
0.769424
20
0.101121
10
0.771930
20
0.100483
10
0.774436
20
0.099835
10
0.776942
20
0.099178
10
0.779449
20
0.098511
10
0.781955
20
0.097835
10
0.784461
20
0.097149
10
0.786967
20
0.096453
10
0.789474
20
0.095748
10
0.791980
20
0.095033
10
0.794486
20
0.094308
10
0.796992
20
0.093574
10
0.799499
20
0.092830
10
0.802005
20
0.092077
10
0.804511
20
0.091313
10
0.807018
20
0.090541
10
0.809524
20
0.089758
10
0.812030
20
0.088966
10
0.814536
20
0.088165
10
0.817043
20
0.087354
10
0.819549
20
0.086533
10
0.822055
20
0.085702
10
0.824561
20
0.084862
10
0.827068
20
0.084012
10
0.829574
20
0.083153
10
0.832080
20
0.082284
10
0.834586
20
0.081405
10
0.837093
20
0.080517
10
0.839599
20
0.079618
10
0.842105
20
0.078711
10
0.844612
20
0.077793
10
0.847118
20
0.076866
10
0.849624
20
0.075930
10
0.852130
20
0.074983
10
0.854637
20
0.074027
10
0.857143
20
0.073062
10
0.859649
20
0.072086
10
0.862155
20
0.071101
10
0.864662
20
0.070107
10
0.867168
20
0.069102
10
0.869674
20
0.068088
10
0.872180
20
0.067065
10
0.874687
20
0.066031
10
0.877193
20
0.064988
10
0.879699
20
0.063935
10
0.882206
20
0.062873
10
0.884712
20
0.061800
10
0.887218
20
0.060718
10
0.889724
20
0.059627
10
0.892231
20
0.058525
10
0.894737
20
0.057414
10
0.897243
20
0.056293
10
0.899749
20
0.055163
10
0.902256
20
0.054022
10
0.904762
20
0.052872
10
0.907268
20
0.051712
10
0.909774
20
0.050543
10
0.912281
20
0.049364
10
0.914787
20
0.048174
10
0.917293
20
0.046976
10
0.919799
20
0.045767
10
0.922306
20
0.044548
10
0.924812
20
0.043320
10
0.927318
20
0.042082
10
0.929825
20
0.040834
10
0.932331
20
0.039577
10
0.934837
20
0.038309
10
0.937343
20
0.037032
10
0.939850
20
0.035745
10
0.942356
20
0.034448
10
0.944862
20
0.033141
10
0.947368
20
0.031825
10
0.949875
20
0.030498
10
0.952381
20
0.029162
10
0.954887
20
0.027816
10
0.957393
20
0.026460
10
0.959900
20
0.025094
10
0.962406
20
0.023718
10
0.964912
20
0.022332
10
0.967419
20
0.020937
10
0.969925
20
0.019531
10
0.972431
20
0.018116
10
0.974937
20
0.016691
10
0.977444
20
0.015255
10
0.979950
20
0.013810
10
0.982456
20
0.012355
10
0.984962
20
0.010890
10
0.987469
20
0.009415
10
0.989975
20
0.007930
10
0.992481
20
0.006435
10
0.994987
20
0.004930
10
0.997494
20
0.003415
10
1.000000
20
0.001890
10
1.000000
20
-0.001890
10
0.997494
20
-0.001418
10
0.994987
20
-0.000953
10
0.992481
20
-0.000495
10
0.989975
20
-0.000044
10
0.987469
20
0.000401
10
0.984962
20
0.000839
10
0.982456
20
0.001270
10
0.979950
20
0.001694
10
0.977444
20
0.002111
10
0.974937
20
0.002522
10
0.972431
20
0.002926
10
0.969925
20
0.003323
10
0.967419
20
0.003713
10
0.964912
20
0.004096
10
0.962406
20
0.004473
10
0.959900
20
0.004842
10
0.957393
20
0.005205
10
0.954887
20
0.005561
10
0.952381
20
0.005910
10
0.949875
20
0.006252
10
0.947368
20
0.006587
10
0.944862
20
0.006915
10
0.942356
20
0.007237
10
0.939850
20
0.007551
10
0.937343
20
0.007859
10
0.934837
20
0.008159
10
0.932331
20
0.008453
10
0.929825
20
0.008740
10
0.927318
20
0.009020
10
0.924812
20
0.009293
10
0.922306
20
0.009558
10
0.919799
20
0.009817
10
0.917293
20
0.010069
10
0.914787
20
0.010314
10
0.912281
20
0.010552
10
0.909774
20
0.010783
10
0.907268
20
0.011007
10
0.904762
20
0.011224
10
0.902256
20
0.011435
10
0.899749
20
0.011638
10
0.897243
20
0.011834
10
0.894737
20
0.012023
10
0.892231
20
0.012205
10
0.889724
20
0.012380
10
0.887218
20
0.012548
10
0.884712
20
0.012708
10
0.882206
20
0.012862
10
0.879699
20
0.013009
10
0.877193
20
0.013149
10
0.874687
20
0.013282
10
0.872180
20
0.013407
10
0.869674
20
0.013526
10
0.867168
20
0.013637
10
0.864662
20
0.013742
10
0.862155
20
0.013839
10
0.859649
20
0.013930
10
0.857143
20
0.014013
10
0.854637
20
0.014089
10
0.852130
20
0.014158
10
0.849624
20
0.014220
10
0.847118
20
0.014275
10
0.844612
20
0.014323
10
0.842105
20
0.014364
10
0.839599
20
0.014398
10
0.837093
20
0.014424
10
0.834586
20
0.014444
10
0.832080
20
0.014456
10
0.829574
20
0.014461
10
0.827068
20
0.014460
10
0.824561
20
0.014451
10
0.822055
20
0.014435
10
0.819549
20
0.014411
10
0.817043
20
0.014381
10
0.814536
20
0.014344
10
0.812030
20
0.014299
10
0.809524
20
0.014248
10
0.807018
20
0.014189
10
0.804511
20
0.014123
10
0.802005
20
0.014050
10
0.799499
20
0.013970
10
0.796992
20
0.013883
10
0.794486
20
0.013788
10
0.791980
20
0.013687
10
0.789474
20
0.013578
10
0.786967
20
0.013463
10
0.784461
20
0.013340
10
0.781955
20
0.013210
10
0.779449
20
0.013073
10
0.776942
20
0.012929
10
0.774436
20
0.012777
10
0.771930
20
0.012619
10
0.769424
20
0.012453
10
0.766917
20
0.012281
10
0.764411
20
0.012101
10
0.761905
20
0.011914
10
0.759398
20
0.011720
10
0.756892
20
0.011519
10
0.754386
20
0.011310
10
0.751880
20
0.011095
10
0.749373
20
0.010872
10
0.746867
20
0.010643
10
0.744361
20
0.010406
10
0.741855
20
0.010162
10
0.739348
20
0.009911
10
0.736842
20
0.009653
10
0.734336
20
0.009388
10
0.731830
20
0.009116
10
0.729323
20
0.008836
10
0.726817
20
0.008550
10
0.724311
20
0.008256
10
0.721805
20
0.007956
10
0.719298
20
0.007648
10
0.716792
20
0.007333
10
0.714286
20
0.007011
10
0.711779
20
0.006682
10
0.709273
20
0.006346
10
0.706767
20
0.006003
10
0.704261
20
0.005653
10
0.701754
20
0.005296
10
0.699248
20
0.004932
10
0.696742
20
0.004566
10
0.694236
20
0.004200
10
0.691729
20
0.003833
10
0.689223
20
0.003467
10
0.686717
20
0.003100
10
0.684211
20
0.002733
10
0.681704
20
0.002366
10
0.679198
20
0.001998
10
0.676692
20
0.001631
10
0.674185
20
0.001263
10
0.671679
20
0.000895
10
0.669173
20
0.000527
10
0.666667
20
0.000159
10
0.664160
20
-0.000209
10
0.661654
20
-0.000578
10
0.659148
20
-0.000947
10
0.656642
20
-0.001315
10
0.654135
20
-0.001684
10
0.651629
20
-0.002054
10
0.649123
20
-0.002423
10
0.646617
20
-0.002792
10
0.644110
20
-0.003162
10
0.641604
20
-0.003531
10
0.639098
20
-0.003901
10
0.636591
20
-0.004271
10
0.634085
20
-0.004641
10
0.631579
20
-0.005010
10
0.629073
20
-0.005380
10
0.626566
20
-0.005750
10
0.624060
20
-0.006121
10
0.621554
20
-0.006491
10
0.619048
20
-0.006861
10
0.616541
20
-0.007231
10
0.614035
20
-0.007601
10
0.611529
20
-0.007972
10
0.609023
20
-0.008342
10
0.606516
20
-0.008712
10
0.604010
20
-0.009083
10
0.601504
20
-0.009453
10
0.598997
20
-0.009823
10
0.596491
20
-0.010193
10
0.593985
20
-0.010563
10
0.591479
20
-0.010934
10
0.588972
20
-0.011304
10
0.586466
20
-0.011674
10
0.583960
20
-0.012043
10
0.581454
20
-0.012413
10
0.578947
20
-0.012783
10
0.576441
20
-0.013152
10
0.573935
20
-0.013522
10
0.571429
20
-0.013891
10
0.568922
20
-0.014260
10
0.566416
20
-0.014629
10
0.563910
20
-0.014998
10
0.561404
20
-0.015367
10
0.558897
20
-0.015735
10
0.556391
20
-0.016103
10
0.553885
20
-0.016472
10
0.551378
20
-0.016839
10
0.548872
20
-0.017207
10
0.546366
20
-0.017574
10
0.543860
20
-0.017941
10
0.541353
20
-0.018308
10
0.538847
20
-0.018675
10
0.536341
20
-0.019041
10
0.533835
20
-0.019407
10
0.531328
20
-0.019772
10
0.528822
20
-0.020137
10
0.526316
20
-0.020502
10
0.523810
20
-0.020867
10
0.521303
20
-0.021231
10
0.518797
20
-0.021595
10
0.516291
20
-0.021958
10
0.513784
20
-0.022321
10
0.511278
20
-0.022683
10
0.508772
20
-0.023045
10
0.506266
20
-0.023407
10
0.503759
20
-0.023768
10
0.501253
20
-0.024128
10
0.498747
20
-0.024488
10
0.496241
20
-0.024848
10
0.493734
20
-0.025207
10
0.491228
20
-0.025565
10
0.488722
20
-0.025923
10
0.486216
20
-0.026280
10
0.483709
20
-0.026637
10
0.481203
20
-0.026993
10
0.478697
20
-0.027348
10
0.476190
20
-0.027703
10
0.473684
20
-0.028056
10
0.471178
20
-0.028410
10
0.468672
20
-0.028762
10
0.466165
20
-0.029114
10
0.463659
20
-0.029465
10
0.461153
20
-0.029815
10
0.458647
20
-0.030165
10
0.456140
20
-0.030513
10
0.453634
20
-0.030861
10
0.451128
20
-0.031208
10
0.448622
20
-0.031554
10
0.446115
20
-0.031900
10
0.443609
20
-0.032244
10
0.441103
20
-0.032587
10
0.438596
20
-0.032930
10
0.436090
20
-0.033271
10
0.433584
20
-0.033611
10
0.431078
20
-0.033951
10
0.428571
20
-0.034289
10
0.426065
20
-0.034627
10
0.423559
20
-0.034963
10
0.421053
20
-0.035298
10
0.418546
20
-0.035632
10
0.416040
20
-0.035965
10
0.413534
20
-0.036296
10
0.411028
20
-0.036627
10
0.408521
20
-0.036956
10
0.406015
20
-0.037284
10
0.403509
20
-0.037610
10
0.401003
20
-0.037936
10
0.398496
20
-0.038260
10
0.395990
20
-0.038582
10
0.393484
20
-0.038904
10
0.390977
20
-0.039224
10
0.388471
20
-0.039542
10
0.385965
20
-0.039859
10
0.383459
20
-0.040175
10
0.380952
20
-0.040489
10
0.378446
20
-0.040801
10
0.375940
20
-0.041112
10
0.373434
20
-0.041421
10
0.370927
20
-0.041729
10
0.368421
20
-0.042035
10
0.365915
20
-0.042339
10
0.363409
20
-0.042641
10
0.360902
20
-0.042942
10
0.358396
20
-0.043241
10
0.355890
20
-0.043538
10
0.353383
20
-0.043834
10
0.350877
20
-0.044127
10
0.348371
20
-0.044419
10
0.345865
20
-0.044708
10
0.343358
20
-0.044996
10
0.340852
20
-0.045281
10
0.338346
20
-0.045565
10
0.335840
20
-0.045846
10
0.333333
20
-0.046125
10
0.330827
20
-0.046402
10
0.328321
20
-0.046677
10
0.325815
20
-0.046950
10
0.323308
20
-0.047220
10
0.320802
20
-0.047488
10
0.318296
20
-0.047754
10
0.315789
20
-0.048017
10
0.313283
20
-0.048278
10
0.310777
20
-0.048536
10
0.308271
20
-0.048792
10
0.305764
20
-0.049045
10
0.303258
20
-0.049296
10
0.300752
20
-0.049544
10
0.298246
20
-0.049789
10
0.295739
20
-0.050032
10
0.293233
20
-0.050271
10
0.290727
20
-0.050508
10
0.288221
20
-0.050742
10
0.285714
20
-0.050973
10
0.283208
20
-0.051201
10
0.280702
20
-0.051426
10
0.278195
20
-0.051648
10
0.275689
20
-0.051867
10
0.273183
20
-0.052082
10
0.270677
20
-0.052295
10
0.268170
20
-0.052504
10
0.265664
20
-0.052709
10
0.263158
20
-0.052912
10
0.260652
20
-0.053110
10
0.258145
20
-0.053305
10
0.255639
20
-0.053497
10
0.253133
20
-0.053685
10
0.250627
20
-0.053869
10
0.248120
20
-0.054049
10
0.245614
20
-0.054226
10
0.243108
20
-0.054399
10
0.240602
20
-0.054567
10
0.238095
20
-0.054732
10
0.235589
20
-0.054892
10
0.233083
20
-0.055048
10
0.230576
20
-0.055200
10
0.228070
20
-0.055347
10
0.225564
20
-0.055490
10
0.223058
20
-0.055629
10
0.220551
20
-0.055763
10
0.218045
20
-0.055892
10
0.215539
20
-0.056016
10
0.213033
20
-0.056136
10
0.210526
20
-0.056251
10
0.208020
20
-0.056360
10
0.205514
20
-0.056464
10
0.203008
20
-0.056564
10
0.200501
20
-0.056657
10
0.197995
20
-0.056746
10
0.195489
20
-0.056828
10
0.192982
20
-0.056905
10
0.190476
20
-0.056977
10
0.187970
20
-0.057042
10
0.185464
20
-0.057101
10
0.182957
20
-0.057155
10
0.180451
20
-0.057202
10
0.177945
20
-0.057242
10
0.175439
20
-0.057276
10
0.172932
20
-0.057304
10
0.170426
20
-0.057324
10
0.167920
20
-0.057338
10
0.165414
20
-0.057344
10
0.162907
20
-0.057344
10
0.160401
20
-0.057335
10
0.157895
20
-0.057320
10
0.155388
20
-0.057296
10
0.152882
20
-0.057265
10
0.150376
20
-0.057225
10
0.147870
20
-0.057177
10
0.145363
20
-0.057120
10
0.142857
20
-0.057055
10
0.140351
20
-0.056981
10
0.137845
20
-0.056897
10
0.135338
20
-0.056804
10
0.132832
20
-0.056702
10
0.130326
20
-0.056589
10
0.127820
20
-0.056466
10
0.125313
20
-0.056333
10
0.122807
20
-0.056189
10
0.120301
20
-0.056034
10
0.117794
20
-0.055867
10
0.115288
20
-0.055689
10
0.112782
20
-0.055498
10
0.110276
20
-0.055295
10
0.107769
20
-0.055079
10
0.105263
20
-0.054850
10
0.102757
20
-0.054607
10
0.100251
20
-0.054350
10
0.097744
20
-0.054078
10
0.095238
20
-0.053790
10
0.092732
20
-0.053487
10
0.090226
20
-0.053167
10
0.087719
20
-0.052830
10
0.085213
20
-0.052476
10
0.082707
20
-0.052103
10
0.080201
20
-0.051710
10
0.077694
20
-0.051297
10
0.075188
20
-0.050864
10
0.072682
20
-0.050408
10
0.070175
20
-0.049929
10
0.067669
20
-0.049425
10
0.065163
20
-0.048896
10
0.062657
20
-0.048340
10
0.060150
20
-0.047755
10
0.057644
20
-0.047140
10
0.055138
20
-0.046492
10
0.052632
20
-0.045810
10
0.050125
20
-0.045092
10
0.047619
20
-0.044334
10
0.045113
20
-0.043534
10
0.042607
20
-0.042688
10
0.040100
20
-0.041792
10
0.037594
20
-0.040841
10
0.035088
20
-0.039831
10
0.032581
20
-0.038755
10
0.030075
20
-0.037605
10
0.027569
20
-0.036373
10
0.025063
20
-0.035046
10
0.022556
20
-0.033611
10
0.020050
20
-0.032050
10
0.017544
20
-0.030338
10
0.015038
20
-0.028441
10
0.012531
20
-0.026313
10
0.010025
20
-0.023880
10
0.007519
20
-0.021018
10
0.005013
20
-0.017486
10
0.002506
20
-0.012662
10
0.000000
20
0.000000
0
ENDSEC
0
EOF
