<svg xmlns="http://www.w3.org/2000/svg" viewBox="0.0 -0.02948441025494036 1.0 0.12835724675072446">
  <polyline points="0.000000,0.000000 0.002506,0.009227 0.005013,0.013224 0.007519,0.016356 0.010025,0.019037 0.012531,0.021428 0.015038,0.023612 0.017544,0.025637 0.020050,0.027535 0.022556,0.029328 0.025063,0.031033 0.027569,0.032661 0.030075,0.034222 0.032581,0.035724 0.035088,0.037173 0.037594,0.038574 0.040100,0.039931 0.042607,0.041247 0.045113,0.042526 0.047619,0.043770 0.050125,0.044982 0.052632,0.046163 0.055138,0.047316 0.057644,0.048441 0.060150,0.049541 0.062657,0.050617 0.065163,0.051669 0.067669,0.052699 0.070175,0.053708 0.072682,0.054696 0.075188,0.055665 0.077694,0.056615 0.080201,0.057546 0.082707,0.058460 0.085213,0.059357 0.087719,0.060237 0.090226,0.061102 0.092732,0.061950 0.095238,0.062784 0.097744,0.063603 0.100251,0.064408 0.102757,0.065198 0.105263,0.065975 0.107769,0.066738 0.110276,0.067489 0.112782,0.068226 0.115288,0.068952 0.117794,0.069664 0.120301,0.070365 0.122807,0.071054 0.125313,0.071732 0.127820,0.072398 0.130326,0.073053 0.132832,0.073697 0.135338,0.074330 0.137845,0.074953 0.140351,0.075565 0.142857,0.076167 0.145363,0.076758 0.147870,0.077340 0.150376,0.077912 0.152882,0.078474 0.155388,0.079026 0.157895,0.079569 0.160401,0.080103 0.162907,0.080627 0.165414,0.081143 0.167920,0.081649 0.170426,0.082146 0.172932,0.082635 0.175439,0.083115 0.177945,0.083586 0.180451,0.084049 0.182957,0.084503 0.185464,0.084949 0.187970,0.085387 0.190476,0.085816 0.192982,0.086238 0.195489,0.086651 0.197995,0.087057 0.200501,0.087454 0.203008,0.087844 0.205514,0.088226 0.208020,0.088601 0.210526,0.088967 0.213033,0.089327 0.215539,0.089678 0.218045,0.090023 0.220551,0.090360 0.223058,0.090690 0.225564,0.091012 0.228070,0.091327 0.230576,0.091635 0.233083,0.091937 0.235589,0.092231 0.238095,0.092518 0.240602,0.092798 0.243108,0.093071 0.245614,0.093337 0.248120,0.093597 0.250627,0.093850 0.253133,0.094096 0.255639,0.094336 0.258145,0.094569 0.260652,0.094795 0.263158,0.095015 0.265664,0.095228 0.268170,0.095435 0.270677,0.095636 0.273183,0.095830 0.275689,0.096018 0.278195,0.096199 0.280702,0.096374 0.283208,0.096543 0.285714,0.096706 0.288221,0.096863 0.290727,0.097013 0.293233,0.097158 0.295739,0.097296 0.298246,0.097428 0.300752,0.097555 0.303258,0.097675 0.305764,0.097789 0.308271,0.097898 0.310777,0.098000 0.313283,0.098097 0.315789,0.098188 0.318296,0.098273 0.320802,0.098353 0.323308,0.098426 0.325815,0.098494 0.328321,0.098556 0.330827,0.098613 0.333333,0.098664 0.335840,0.098709 0.338346,0.098749 0.340852,0.098783 0.343358,0.098812 0.345865,0.098835 0.348371,0.098853 0.350877,0.098865 0.353383,0.098872 0.355890,0.098873 0.358396,0.098869 0.360902,0.098859 0.363409,0.098844 0.365915,0.098824 0.368421,0.098799 0.370927,0.098768 0.373434,0.098732 0.375940,0.098691 0.378446,0.098644 0.380952,0.098592 0.383459,0.098535 0.385965,0.098473 0.388471,0.098406 0.390977,0.098333 0.393484,0.098256 0.395990,0.098173 0.398496,0.098085 0.401003,0.097993 0.403509,0.097896 0.406015,0.097797 0.408521,0.097694 0.411028,0.097588 0.413534,0.097478 0.416040,0.097366 0.418546,0.097250 0.421053,0.097131 0.423559,0.097008 0.426065,0.096883 0.428571,0.096755 0.431078,0.096623 0.433584,0.096488 0.436090,0.096350 0.438596,0.096209 0.441103,0.096065 0.443609,0.095918 0.446115,0.095768 0.448622,0.095615 0.451128,0.095459 0.453634,0.095300 0.456140,0.095138 0.458647,0.094972 0.461153,0.094804 0.463659,0.094633 0.466165,0.094459 0.468672,0.094282 0.471178,0.094103 0.473684,0.093920 0.476190,0.093734 0.478697,0.093546 0.481203,0.093354 0.483709,0.093160 0.486216,0.092963 0.488722,0.092763 0.491228,0.092561 0.493734,0.092355 0.496241,0.092147 0.498747,0.091936 0.501253,0.091722 0.503759,0.091505 0.506266,0.091286 0.508772,0.091064 0.511278,0.090839 0.513784,0.090611 0.516291,0.090381 0.518797,0.090148 0.521303,0.089912 0.523810,0.089674 0.526316,0.089433 0.528822,0.089189 0.531328,0.088943 0.533835,0.088694 0.536341,0.088442 0.538847,0.088188 0.541353,0.087931 0.543860,0.087671 0.546366,0.087409 0.548872,0.087144 0.551378,0.086877 0.553885,0.086607 0.556391,0.086335 0.558897,0.086059 0.561404,0.085782 0.563910,0.085502 0.566416,0.085219 0.568922,0.084934 0.571429,0.084646 0.573935,0.084356 0.576441,0.084063 0.578947,0.083768 0.581454,0.083470 0.583960,0.083170 0.586466,0.082867 0.588972,0.082562 0.591479,0.082254 0.593985,0.081944 0.596491,0.081631 0.598997,0.081316 0.601504,0.080998 0.604010,0.080678 0.606516,0.080356 0.609023,0.080031 0.611529,0.079704 0.614035,0.079374 0.616541,0.079042 0.619048,0.078708 0.621554,0.078371 0.624060,0.078032 0.626566,0.077690 0.629073,0.077346 0.631579,0.076999 0.634085,0.076651 0.636591,0.076299 0.639098,0.075946 0.641604,0.075590 0.644110,0.075232 0.646617,0.074871 0.649123,0.074508 0.651629,0.074143 0.654135,0.073775 0.656642,0.073405 0.659148,0.073033 0.661654,0.072658 0.664160,0.072281 0.666667,0.071902 0.669173,0.071520 0.671679,0.071137 0.674185,0.070750 0.676692,0.070362 0.679198,0.069971 0.681704,0.069578 0.684211,0.069183 0.686717,0.068785 0.689223,0.068385 0.691729,0.067983 0.694236,0.067578 0.696742,0.067171 0.699248,0.066762 0.701754,0.066351 0.704261,0.065937 0.706767,0.065521 0.709273,0.065103 0.711779,0.064683 0.714286,0.064260 0.716792,0.063835 0.719298,0.063408 0.721805,0.062978 0.724311,0.062547 0.726817,0.062113 0.729323,0.061676 0.731830,0.061238 0.734336,0.060797 0.736842,0.060354 0.739348,0.059909 0.741855,0.059462 0.744361,0.059012 0.746867,0.058560 0.749373,0.058106 0.751880,0.057649 0.754386,0.057191 0.756892,0.056730 0.759398,0.056267 0.761905,0.055801 0.764411,0.055334 0.766917,0.054864 0.769424,0.054392 0.771930,0.053918 0.774436,0.053441 0.776942,0.052962 0.779449,0.052482 0.781955,0.051998 0.784461,0.051513 0.786967,0.051025 0.789474,0.050535 0.791980,0.050043 0.794486,0.049549 0.796992,0.049052 0.799499,0.048553 0.802005,0.048052 0.804511,0.047549 0.807018,0.047044 0.809524,0.046536 0.812030,0.046026 0.814536,0.045514 0.817043,0.044999 0.819549,0.044483 0.822055,0.043964 0.824561,0.043442 0.827068,0.042919 0.829574,0.042393 0.832080,0.041865 0.834586,0.041335 0.837093,0.040803 0.839599,0.040268 0.842105,0.039731 0.844612,0.039192 0.847118,0.038651 0.849624,0.038107 0.852130,0.037561 0.854637,0.037013 0.857143,0.036463 0.859649,0.035910 0.862155,0.035355 0.864662,0.034798 0.867168,0.034239 0.869674,0.033677 0.872180,0.033113 0.874687,0.032547 0.877193,0.031978 0.879699,0.031407 0.882206,0.030834 0.884712,0.030259 0.887218,0.029681 0.889724,0.029101 0.892231,0.028519 0.894737,0.027934 0.897243,0.027348 0.899749,0.026758 0.902256,0.026167 0.904762,0.025573 0.907268,0.024977 0.909774,0.024379 0.912281,0.023778 0.914787,0.023175 0.917293,0.022570 0.919799,0.021962 0.922306,0.021352 0.924812,0.020739 0.927318,0.020125 0.929825,0.019508 0.932331,0.018888 0.934837,0.018267 0.937343,0.017642 0.939850,0.017016 0.942356,0.016387 0.944862,0.015756 0.947368,0.015122 0.949875,0.014486 0.952381,0.013848 0.954887,0.013207 0.957393,0.012564 0.959900,0.011919 0.962406,0.011271 0.964912,0.010620 0.967419,0.009968 0.969925,0.009312 0.972431,0.008655 0.974937,0.007995 0.977444,0.007332 0.979950,0.006667 0.982456,0.006000 0.984962,0.005330 0.987469,0.004658 0.989975,0.003983 0.992481,0.003306 0.994987,0.002627 0.997494,0.001945 1.000000,0.001260 1.000000,-0.001260 0.997494,-0.001278 0.994987,-0.001296 0.992481,-0.001314 0.989975,-0.001332 0.987469,-0.001351 0.984962,-0.001371 0.982456,-0.001390 0.979950,-0.001410 0.977444,-0.001430 0.974937,-0.001451 0.972431,-0.001472 0.969925,-0.001493 0.967419,-0.001515 0.964912,-0.001537 0.962406,-0.001560 0.959900,-0.001583 0.957393,-0.001606 0.954887,-0.001629 0.952381,-0.001653 0.949875,-0.001678 0.947368,-0.001703 0.944862,-0.001728 0.942356,-0.001754 0.939850,-0.001780 0.937343,-0.001806 0.934837,-0.001833 0.932331,-0.001861 0.929825,-0.001889 0.927318,-0.001917 0.924812,-0.001946 0.922306,-0.001975 0.919799,-0.002004 0.917293,-0.002035 0.914787,-0.002065 0.912281,-0.002096 0.909774,-0.002128 0.907268,-0.002160 0.904762,-0.002192 0.902256,-0.002225 0.899749,-0.002258 0.897243,-0.002292 0.894737,-0.002327 0.892231,-0.002361 0.889724,-0.002397 0.887218,-0.002433 0.884712,-0.002469 0.882206,-0.002506 0.879699,-0.002543 0.877193,-0.002581 0.874687,-0.002620 0.872180,-0.002658 0.869674,-0.002698 0.867168,-0.002738 0.864662,-0.002778 0.862155,-0.002819 0.859649,-0.002861 0.857143,-0.002903 0.854637,-0.002945 0.852130,-0.002989 0.849624,-0.003032 0.847118,-0.003076 0.844612,-0.003121 0.842105,-0.003166 0.839599,-0.003212 0.837093,-0.003259 0.834586,-0.003305 0.832080,-0.003353 0.829574,-0.003401 0.827068,-0.003449 0.824561,-0.003499 0.822055,-0.003548 0.819549,-0.003598 0.817043,-0.003649 0.814536,-0.003700 0.812030,-0.003752 0.809524,-0.003805 0.807018,-0.003858 0.804511,-0.003911 0.802005,-0.003965 0.799499,-0.004020 0.796992,-0.004075 0.794486,-0.004131 0.791980,-0.004187 0.789474,-0.004244 0.786967,-0.004302 0.784461,-0.004360 0.781955,-0.004418 0.779449,-0.004477 0.776942,-0.004537 0.774436,-0.004597 0.771930,-0.004658 0.769424,-0.004720 0.766917,-0.004781 0.764411,-0.004844 0.761905,-0.004907 0.759398,-0.004971 0.756892,-0.005035 0.754386,-0.005100 0.751880,-0.005165 0.749373,-0.005231 0.746867,-0.005297 0.744361,-0.005364 0.741855,-0.005432 0.739348,-0.005500 0.736842,-0.005568 0.734336,-0.005637 0.731830,-0.005707 0.729323,-0.005777 0.726817,-0.005848 0.724311,-0.005919 0.721805,-0.005991 0.719298,-0.006064 0.716792,-0.006137 0.714286,-0.006210 0.711779,-0.006284 0.709273,-0.006359 0.706767,-0.006434 0.704261,-0.006509 0.701754,-0.006585 0.699248,-0.006662 0.696742,-0.006739 0.694236,-0.006817 0.691729,-0.006895 0.689223,-0.006974 0.686717,-0.007053 0.684211,-0.007133 0.681704,-0.007213 0.679198,-0.007294 0.676692,-0.007375 0.674185,-0.007457 0.671679,-0.007539 0.669173,-0.007621 0.666667,-0.007705 0.664160,-0.007788 0.661654,-0.007872 0.659148,-0.007957 0.656642,-0.008042 0.654135,-0.008127 0.651629,-0.008213 0.649123,-0.008300 0.646617,-0.008387 0.644110,-0.008474 0.641604,-0.008562 0.639098,-0.008650 0.636591,-0.008738 0.634085,-0.008827 0.631579,-0.008917 0.629073,-0.009007 0.626566,-0.009097 0.624060,-0.009188 0.621554,-0.009279 0.619048,-0.009370 0.616541,-0.009462 0.614035,-0.009555 0.611529,-0.009647 0.609023,-0.009740 0.606516,-0.009834 0.604010,-0.009927 0.601504,-0.010021 0.598997,-0.010116 0.596491,-0.010211 0.593985,-0.010306 0.591479,-0.010401 0.588972,-0.010497 0.586466,-0.010593 0.583960,-0.010690 0.581454,-0.010787 0.578947,-0.010884 0.576441,-0.010981 0.573935,-0.011079 0.571429,-0.011177 0.568922,-0.011275 0.566416,-0.011373 0.563910,-0.011472 0.561404,-0.011571 0.558897,-0.011670 0.556391,-0.011770 0.553885,-0.011869 0.551378,-0.011969 0.548872,-0.012069 0.546366,-0.012170 0.543860,-0.012270 0.541353,-0.012371 0.538847,-0.012472 0.536341,-0.012573 0.533835,-0.012674 0.531328,-0.012775 0.528822,-0.012877 0.526316,-0.012978 0.523810,-0.013080 0.521303,-0.013182 0.518797,-0.013284 0.516291,-0.013386 0.513784,-0.013488 0.511278,-0.013591 0.508772,-0.013693 0.506266,-0.013795 0.503759,-0.013898 0.501253,-0.014000 0.498747,-0.014103 0.496241,-0.014205 0.493734,-0.014308 0.491228,-0.014410 0.488722,-0.014513 0.486216,-0.014615 0.483709,-0.014717 0.481203,-0.014820 0.478697,-0.014922 0.476190,-0.015024 0.473684,-0.015126 0.471178,-0.015228 0.468672,-0.015330 0.466165,-0.015432 0.463659,-0.015534 0.461153,-0.015635 0.458647,-0.015737 0.456140,-0.015838 0.453634,-0.015939 0.451128,-0.016040 0.448622,-0.016140 0.446115,-0.016241 0.443609,-0.016341 0.441103,-0.016441 0.438596,-0.016540 0.436090,-0.016640 0.433584,-0.016739 0.431078,-0.016838 0.428571,-0.016936 0.426065,-0.017034 0.423559,-0.017132 0.421053,-0.017229 0.418546,-0.017326 0.416040,-0.017423 0.413534,-0.017519 0.411028,-0.017615 0.408521,-0.017710 0.406015,-0.017805 0.403509,-0.017899 0.401003,-0.017993 0.398496,-0.018086 0.395990,-0.018181 0.393484,-0.018277 0.390977,-0.018374 0.388471,-0.018472 0.385965,-0.018572 0.383459,-0.018672 0.380952,-0.018774 0.378446,-0.018876 0.375940,-0.018980 0.373434,-0.019085 0.370927,-0.019191 0.368421,-0.019297 0.365915,-0.019405 0.363409,-0.019514 0.360902,-0.019624 0.358396,-0.019734 0.355890,-0.019846 0.353383,-0.019958 0.350877,-0.020071 0.348371,-0.020185 0.345865,-0.020300 0.343358,-0.020416 0.340852,-0.020532 0.338346,-0.020650 0.335840,-0.020768 0.333333,-0.020886 0.330827,-0.021005 0.328321,-0.021125 0.325815,-0.021246 0.323308,-0.021367 0.320802,-0.021489 0.318296,-0.021611 0.315789,-0.021734 0.313283,-0.021857 0.310777,-0.021981 0.308271,-0.022105 0.305764,-0.022229 0.303258,-0.022354 0.300752,-0.022480 0.298246,-0.022605 0.295739,-0.022731 0.293233,-0.022857 0.290727,-0.022983 0.288221,-0.023110 0.285714,-0.023237 0.283208,-0.023363 0.280702,-0.023490 0.278195,-0.023617 0.275689,-0.023744 0.273183,-0.023871 0.270677,-0.023998 0.268170,-0.024125 0.265664,-0.024251 0.263158,-0.024378 0.260652,-0.024504 0.258145,-0.024630 0.255639,-0.024756 0.253133,-0.024881 0.250627,-0.025006 0.248120,-0.025131 0.245614,-0.025255 0.243108,-0.025379 0.240602,-0.025502 0.238095,-0.025624 0.235589,-0.025746 0.233083,-0.025867 0.230576,-0.025988 0.228070,-0.026107 0.225564,-0.026226 0.223058,-0.026344 0.220551,-0.026461 0.218045,-0.026577 0.215539,-0.026691 0.213033,-0.026805 0.210526,-0.026918 0.208020,-0.027029 0.205514,-0.027139 0.203008,-0.027247 0.200501,-0.027354 0.197995,-0.027460 0.195489,-0.027564 0.192982,-0.027666 0.190476,-0.027767 0.187970,-0.027865 0.185464,-0.027962 0.182957,-0.028057 0.180451,-0.028150 0.177945,-0.028240 0.175439,-0.028329 0.172932,-0.028415 0.170426,-0.028498 0.167920,-0.028580 0.165414,-0.028658 0.162907,-0.028734 0.160401,-0.028807 0.157895,-0.028877 0.155388,-0.028944 0.152882,-0.029007 0.150376,-0.029068 0.147870,-0.029125 0.145363,-0.029178 0.142857,-0.029228 0.140351,-0.029274 0.137845,-0.029315 0.135338,-0.029353 0.132832,-0.029386 0.130326,-0.029415 0.127820,-0.029439 0.125313,-0.029458 0.122807,-0.029472 0.120301,-0.029481 0.117794,-0.029484 0.115288,-0.029482 0.112782,-0.029474 0.110276,-0.029459 0.107769,-0.029438 0.105263,-0.029410 0.102757,-0.029375 0.100251,-0.029332 0.097744,-0.029282 0.095238,-0.029224 0.092732,-0.029157 0.090226,-0.029082 0.087719,-0.028997 0.085213,-0.028902 0.082707,-0.028798 0.080201,-0.028682 0.077694,-0.028555 0.075188,-0.028416 0.072682,-0.028265 0.070175,-0.028100 0.067669,-0.027921 0.065163,-0.027727 0.062657,-0.027517 0.060150,-0.027290 0.057644,-0.027045 0.055138,-0.026781 0.052632,-0.026495 0.050125,-0.026188 0.047619,-0.025856 0.045113,-0.025498 0.042607,-0.025112 0.040100,-0.024695 0.037594,-0.024243 0.035088,-0.023754 0.032581,-0.023223 0.030075,-0.022645 0.027569,-0.022013 0.025063,-0.021322 0.022556,-0.020560 0.020050,-0.019716 0.017544,-0.018773 0.015038,-0.017710 0.012531,-0.016494 0.010025,-0.015077 0.007519,-0.013377 0.005013,-0.011232 0.002506,-0.008228 0.000000,0.000000" fill="none" stroke="black" stroke-width="0.001"/>
</svg>
